<svg width="160" height="91" viewBox="0 0 358.6 91.191" xmlns="http://www.w3.org/2000/svg">
    <g id="svgGroup" stroke-linecap="round" fill-rule="evenodd" font-size="9pt" stroke="#000" stroke-width="0.25mm"
       fill="black" style="stroke:#FFF;stroke-width:0.25mm;fill:white">
        <path d="M 358.4 51.333 A 6.991 6.991 0 0 0 357.705 51.18 Q 357.037 51.069 356.477 51.13 A 3.457 3.457 0 0 0 356.45 51.133 Q 355.604 51.233 354.212 50.738 A 11.815 11.815 0 0 1 354.2 50.733 Q 354.3 52.433 354.15 57.283 Q 354 62.133 350.45 65.433 Q 347.229 68.428 338.573 68.088 A 53.022 53.022 0 0 1 336.75 67.983 Q 331.726 67.612 328.772 65.808 A 8.3 8.3 0 0 1 324.9 60.633 A 96.838 96.838 0 0 1 324.271 58.054 Q 323.242 53.551 323.4 51.733 Q 322.815 38.858 323.466 33.879 A 21.128 21.128 0 0 1 323.5 33.633 Q 324.047 29.807 324.868 27.719 A 8.418 8.418 0 0 1 325.35 26.683 A 4.677 4.677 0 0 1 327.221 24.875 Q 327.944 24.474 328.876 24.221 A 10.555 10.555 0 0 1 329.7 24.033 Q 339.752 23.38 345.93 24.262 A 30.856 30.856 0 0 1 348.5 24.733 A 6.125 6.125 0 0 1 352.465 27.892 Q 354.864 32.061 354.703 41.464 A 72.139 72.139 0 0 1 354.7 41.633 Q 356 41.833 356.65 41.883 A 2.477 2.477 0 0 0 356.797 41.89 Q 357.338 41.899 358.246 41.711 A 16.277 16.277 0 0 0 358.6 41.633 Q 358.5 38.333 358.45 35.483 Q 358.4 32.633 358 30.333 Q 357.6 28.033 356.85 26.333 A 6.748 6.748 0 0 0 355.659 24.482 A 6.118 6.118 0 0 0 354.7 23.633 A 13.506 13.506 0 0 0 349.88 20.697 A 15.504 15.504 0 0 0 349.7 20.633 Q 346.8 19.633 343.6 19.433 A 24.988 24.988 0 0 0 341.704 19.323 Q 341.491 19.319 341.282 19.319 A 20.191 20.191 0 0 0 339.65 19.383 A 19.957 19.957 0 0 1 338.037 19.448 A 22.476 22.476 0 0 1 335.8 19.333 Q 333.4 19.333 331.05 19.633 Q 328.7 19.933 326.65 20.683 A 16.711 16.711 0 0 0 324.502 21.638 A 13.577 13.577 0 0 0 323.05 22.533 Q 321.5 23.633 320.8 25.133 A 104.476 104.476 0 0 1 320.631 25.69 Q 320.438 26.321 320.165 27.192 A 443.469 443.469 0 0 1 319.9 28.033 Q 319.36 29.743 319.225 30.805 A 6.418 6.418 0 0 0 319.2 31.033 Q 318.6 34.633 318.6 38.233 Q 318.6 43.649 318.634 46.203 A 122.941 122.941 0 0 0 318.65 47.183 Q 318.688 48.983 318.814 51.72 A 392.075 392.075 0 0 0 318.9 53.483 A 34.856 34.856 0 0 0 319.978 60.582 A 32.397 32.397 0 0 0 320.1 61.033 Q 321.1 64.633 323.8 67.033 Q 327.3 70.533 332.4 71.433 Q 335.2 71.433 338.6 71.683 Q 342 71.933 345.2 71.683 A 23.37 23.37 0 0 0 349.545 70.943 A 20.495 20.495 0 0 0 351.15 70.433 Q 353.9 69.433 355.6 67.033 Q 356.3 66.333 356.75 64.783 A 20.519 20.519 0 0 0 357.103 63.369 Q 357.264 62.62 357.398 61.767 A 38.15 38.15 0 0 0 357.5 61.083 Q 357.8 58.933 358 56.433 Q 358.2 53.933 358.4 51.333 Z M 189.5 70.633 L 189.5 70.233 Q 189.6 66.933 189.6 63.633 Q 189.6 60.333 189.45 56.983 Q 189.3 53.633 189.2 46.983 Q 189.103 40.554 189.287 37.069 A 53.597 53.597 0 0 1 189.3 36.833 Q 189.5 34.133 190.85 31.833 Q 192.023 29.835 194.556 28.289 A 17.258 17.258 0 0 1 195.35 27.833 Q 198.392 26.192 206.891 25.436 A 110.199 110.199 0 0 1 207.5 25.383 A 21.357 21.357 0 0 1 208.557 25.321 Q 216.518 25.054 216.8 31.583 A 475.847 475.847 0 0 1 216.931 34.874 Q 217.047 38.077 217.084 40.496 A 136.58 136.58 0 0 1 217.1 42.533 Q 217.1 46.533 216.85 51.383 Q 216.6 56.233 216.55 59.333 A 377.063 377.063 0 0 0 216.501 64.605 A 340.79 340.79 0 0 0 216.5 65.333 A 72.44 72.44 0 0 0 216.544 67.92 Q 216.588 69.138 216.674 70.225 A 43.502 43.502 0 0 0 216.7 70.533 A 119.904 119.904 0 0 0 218.277 70.524 Q 220.389 70.496 221.401 70.387 A 7.087 7.087 0 0 0 221.8 70.333 Q 221.617 67.217 221.685 63.176 A 142.619 142.619 0 0 1 221.7 62.433 Q 221.8 57.933 221.9 53.083 Q 222 48.233 222.05 43.483 Q 222.086 40.069 222.019 37.043 A 151.842 151.842 0 0 0 221.95 34.733 A 61.439 61.439 0 0 0 221.781 31.895 Q 221.664 30.501 221.486 29.283 A 31.282 31.282 0 0 0 221.25 27.883 A 16.314 16.314 0 0 0 220.952 26.599 Q 220.454 24.812 219.7 24.133 Q 217.6 22.333 215 21.633 Q 212.4 20.933 209.65 21.033 Q 207.577 21.109 203.543 21.753 A 166.901 166.901 0 0 0 200.7 22.233 A 56.261 56.261 0 0 0 197.937 22.79 Q 194.081 23.676 192.474 24.782 A 5.072 5.072 0 0 0 192.4 24.833 A 6.393 6.393 0 0 1 191.915 25.183 Q 191.658 25.352 191.356 25.521 A 11.623 11.623 0 0 1 191.15 25.633 A 40.894 40.894 0 0 0 190.623 25.919 Q 190.418 26.033 190.237 26.136 A 19.479 19.479 0 0 0 189.9 26.333 A 27.065 27.065 0 0 1 189.846 25.326 Q 189.822 24.628 189.843 24.019 A 15.335 15.335 0 0 1 189.85 23.833 Q 189.9 22.733 189.7 21.033 A 0.224 0.224 0 0 0 189.592 20.847 Q 189.424 20.728 188.995 20.69 A 3.919 3.919 0 0 0 188.9 20.683 Q 188.271 20.644 187.209 20.698 A 37.527 37.527 0 0 0 186.6 20.733 Q 185.334 20.818 184.282 20.76 A 13.661 13.661 0 0 1 183.9 20.733 A 525.274 525.274 0 0 0 183.654 36.639 A 472.209 472.209 0 0 0 183.75 46.233 Q 184 58.533 184 70.833 A 53.946 53.946 0 0 1 186.234 70.697 Q 187.376 70.649 188.642 70.637 A 91.59 91.59 0 0 1 189.5 70.633 Z M 142.3 46.833 L 142.3 45.033 Q 143.3 45.233 145.5 45.333 A 143.526 143.526 0 0 0 146.707 45.382 Q 148.69 45.455 152.498 45.564 A 2200.347 2200.347 0 0 0 155 45.633 A 503.159 503.159 0 0 0 157.314 45.692 Q 162.491 45.81 165.009 45.742 A 44.88 44.88 0 0 0 165.3 45.733 A 144.6 144.6 0 0 0 168.913 45.569 A 120.348 120.348 0 0 0 170.95 45.433 Q 173.6 45.233 175.55 45.033 Q 177.392 44.844 178.118 44.656 A 3.53 3.53 0 0 0 178.2 44.633 Q 178.5 40.433 178.2 36.333 A 24.76 24.76 0 0 0 177.344 31.368 A 21.24 21.24 0 0 0 176.45 28.833 Q 175 25.433 172.2 23.033 A 12.873 12.873 0 0 0 168.599 20.887 Q 167.045 20.261 165.188 19.904 A 22.667 22.667 0 0 0 164.8 19.833 Q 161.2 18.933 157.4 19.033 A 27.071 27.071 0 0 0 151.272 19.878 A 24.877 24.877 0 0 0 150.2 20.183 Q 146.8 21.233 144.1 23.283 A 13.045 13.045 0 0 0 140.955 26.649 A 12.208 12.208 0 0 0 140.1 28.233 Q 138.9 31.533 138.55 34.983 A 351.239 351.239 0 0 0 137.976 41.212 A 388.659 388.659 0 0 0 137.9 42.133 A 56.092 56.092 0 0 0 137.833 44.867 A 56.267 56.267 0 0 0 138.1 50.333 A 41.323 41.323 0 0 0 139.197 56.64 A 36.997 36.997 0 0 0 139.6 58.083 A 30.986 30.986 0 0 0 141.85 63.619 A 28.015 28.015 0 0 0 142.5 64.783 A 16.155 16.155 0 0 0 145.668 68.677 A 14.903 14.903 0 0 0 147 69.733 Q 149.4 71.133 152.2 71.533 Q 155 71.533 158.35 71.733 Q 161.7 71.933 164.9 71.733 A 21.814 21.814 0 0 0 168.885 71.126 A 18.663 18.663 0 0 0 170.8 70.533 Q 173.5 69.533 175.2 67.133 Q 175.9 66.533 176.35 64.983 A 20.519 20.519 0 0 0 176.703 63.569 Q 176.864 62.82 176.998 61.967 A 38.15 38.15 0 0 0 177.1 61.283 Q 177.4 59.133 177.6 56.633 Q 177.8 54.133 178 51.533 Q 176.983 51.256 175.794 51.406 A 7.29 7.29 0 0 0 175.6 51.433 Q 174.408 51.617 173.469 51.548 A 6.362 6.362 0 0 1 173.3 51.533 Q 173.458 54.766 172.869 59.397 A 87.619 87.619 0 0 1 172.5 61.983 A 6.757 6.757 0 0 1 168.235 67.304 Q 166.806 67.943 164.91 68.278 A 25.686 25.686 0 0 1 161.2 68.633 A 44.402 44.402 0 0 1 159.992 68.652 Q 152.014 68.668 148.494 65.625 A 7.815 7.815 0 0 1 147.45 64.533 A 33.743 33.743 0 0 1 145.648 62.022 Q 143.969 59.419 143.441 57.289 A 9.141 9.141 0 0 1 143.35 56.883 A 79.025 79.025 0 0 1 142.993 54.984 Q 142.689 53.245 142.574 52.016 A 20.026 20.026 0 0 1 142.55 51.733 Q 142.416 50.034 142.322 47.454 A 196.251 196.251 0 0 1 142.3 46.833 Z M 267.5 6.733 L 267.5 0.133 A 46.606 46.606 0 0 0 266.765 0.075 Q 263.189 -0.179 262.836 0.427 A 0.279 0.279 0 0 0 262.8 0.533 L 262.8 1.633 Q 262.719 3.258 262.803 6.039 A 136.808 136.808 0 0 0 262.85 7.383 A 271.327 271.327 0 0 1 262.897 8.612 Q 262.991 11.283 262.95 11.983 A 5.653 5.653 0 0 0 262.944 12.196 Q 262.919 13.802 263.057 25.307 A 7116.973 7116.973 0 0 0 263.1 28.833 Q 262.905 27.958 260.016 24.387 A 109.397 109.397 0 0 0 259.85 24.183 A 10.853 10.853 0 0 0 254.123 20.545 A 16.009 16.009 0 0 0 251 20.033 A 48.039 48.039 0 0 0 247.694 19.919 A 47.33 47.33 0 0 0 239.5 20.633 Q 234.94 21.433 232.844 23.13 A 5.443 5.443 0 0 0 231.95 24.033 Q 230.1 26.433 229.15 29.183 A 29.274 29.274 0 0 0 228.158 32.836 A 35.946 35.946 0 0 0 227.75 35.233 Q 227.3 38.533 227.3 42.033 Q 227.4 47.033 227.95 51.933 A 35.419 35.419 0 0 0 228.917 57.145 A 28.649 28.649 0 0 0 230.15 60.783 Q 231.8 64.733 235.1 67.283 Q 237.86 69.416 242.299 70.045 A 25.648 25.648 0 0 0 244.1 70.233 Q 247.266 70.661 252.337 70.137 A 76.241 76.241 0 0 0 254.1 69.933 Q 259.639 69.23 261.931 64.43 A 13.234 13.234 0 0 0 262.5 63.033 Q 262.8 64.733 262.9 66.783 Q 262.999 68.815 263 69.815 A 20.201 20.201 0 0 1 263 69.833 Q 263 70.218 263.059 70.425 A 0.63 0.63 0 0 0 263.1 70.533 A 21.301 21.301 0 0 0 264.384 70.667 Q 266.544 70.822 268.1 70.433 Q 268.5 56.033 268 39.733 Q 267.5 23.433 267.5 6.733 Z M 7.9 53.333 L 34.4 53.633 Q 36.1 59.933 36.65 62.233 Q 37.2 64.533 37.75 66.733 A 45.857 45.857 0 0 0 38.17 68.299 Q 38.414 69.148 38.668 69.886 A 24.866 24.866 0 0 0 38.9 70.533 L 39 70.533 A 0.162 0.162 0 0 0 38.982 70.594 Q 38.946 71.1 43.284 70.535 A 75.25 75.25 0 0 0 43.3 70.533 L 43.3 70.433 L 35.8 35.433 Q 35.494 34.132 35.012 32.127 A 1523.146 1523.146 0 0 0 34.7 30.833 Q 34 27.933 33.2 24.433 Q 32.4 20.933 31.55 17.133 Q 30.7 13.333 29.95 9.983 A 367.066 367.066 0 0 0 29.269 6.997 Q 28.895 5.391 28.55 3.983 Q 27.906 1.357 27.605 0.057 A 93.117 93.117 0 0 1 27.6 0.033 Q 24.3 0.333 22.25 0.383 Q 20.2 0.433 19.35 0.433 L 17.7 0.433 A 11.387 11.387 0 0 0 16.739 0.472 A 9.462 9.462 0 0 0 16.2 0.533 Q 12.9 8.533 10.9 16.633 A 863.316 863.316 0 0 0 8.069 28.446 A 763.275 763.275 0 0 0 7.2 32.233 A 419.864 419.864 0 0 0 5.251 41.276 A 346.164 346.164 0 0 0 4.25 46.383 Q 3 53.033 2.1 58.133 Q 1.295 62.696 0.81 65.737 A 226.032 226.032 0 0 0 0.7 66.433 A 186.461 186.461 0 0 1 0.523 67.546 Q 0.163 69.765 0 70.333 A 536.163 536.163 0 0 0 0.943 70.333 Q 3.844 70.327 4.299 70.289 A 0.932 0.932 0 0 0 4.35 70.283 Q 4.7 70.233 4.8 70.233 A 2357.184 2357.184 0 0 1 5.295 67.499 Q 5.842 64.486 6.17 62.736 A 253.511 253.511 0 0 1 6.35 61.783 Q 6.8 59.433 7.9 53.333 Z M 47.1 84.333 L 47.1 90.933 Q 48.471 91.191 49.733 91.191 A 12.11 12.11 0 0 0 50.15 91.183 Q 51.245 91.146 51.513 90.851 A 0.314 0.314 0 0 0 51.6 90.633 L 51.6 89.533 Q 51.7 87.533 51.75 86.483 Q 51.8 85.433 51.85 84.583 Q 51.9 83.733 51.95 82.783 Q 52 81.833 52 80.083 L 52 75.433 A 210.206 210.206 0 0 0 51.994 73.871 Q 51.975 71.358 51.9 67.833 A 1.213 1.213 0 0 0 52.219 68.396 Q 52.748 68.96 54.1 69.433 Q 55.837 70.041 61.306 70.385 A 140.166 140.166 0 0 0 63.05 70.483 A 207.948 207.948 0 0 0 64.998 70.573 Q 69.848 70.771 72.58 70.627 A 28.245 28.245 0 0 0 73.25 70.583 A 23.602 23.602 0 0 0 77.007 70 A 19.638 19.638 0 0 0 79.2 69.333 A 8.338 8.338 0 0 0 82.754 66.823 A 9.952 9.952 0 0 0 82.95 66.583 Q 84.5 64.633 85.45 61.883 A 29.274 29.274 0 0 0 86.442 58.231 A 35.946 35.946 0 0 0 86.85 55.833 Q 87.3 52.533 87.3 49.033 Q 87.3 44.302 86.951 40.677 A 50.814 50.814 0 0 0 86.7 38.533 Q 86.1 34.233 84.45 30.283 Q 82.8 26.333 79.5 23.783 Q 76.74 21.651 72.301 21.022 A 25.648 25.648 0 0 0 70.5 20.833 Q 67.7 20.433 61.95 21.033 A 18.291 18.291 0 0 0 58.178 21.807 Q 55.767 22.593 54.024 24.059 A 10.834 10.834 0 0 0 53.1 24.933 Q 52.031 26.488 52.143 25.824 A 1.323 1.323 0 0 1 52.15 25.783 A 3.485 3.485 0 0 0 52.198 25.473 Q 52.236 25.119 52.184 24.829 A 1.528 1.528 0 0 0 52.1 24.533 A 195.517 195.517 0 0 1 52.056 23.465 Q 52.006 22.14 52.001 21.4 A 23.237 23.237 0 0 1 52 21.233 A 3.956 3.956 0 0 0 51.994 21.002 Q 51.981 20.782 51.941 20.642 A 0.63 0.63 0 0 0 51.9 20.533 A 94.949 94.949 0 0 1 50.063 20.594 Q 48.438 20.633 46.5 20.633 Q 46.3 27.833 46.35 35.583 Q 46.4 43.333 46.55 51.383 Q 46.7 59.433 46.9 67.733 Q 47.1 76.033 47.1 84.333 Z M 93.5 84.333 L 93.5 90.933 Q 94.871 91.191 96.133 91.191 A 12.11 12.11 0 0 0 96.55 91.183 Q 97.645 91.146 97.913 90.851 A 0.314 0.314 0 0 0 98 90.633 L 98 89.533 Q 98.1 87.533 98.15 86.483 Q 98.2 85.433 98.25 84.583 Q 98.3 83.733 98.35 82.783 Q 98.4 81.833 98.4 80.083 L 98.4 75.433 A 210.206 210.206 0 0 0 98.394 73.871 Q 98.375 71.358 98.3 67.833 A 1.213 1.213 0 0 0 98.619 68.396 Q 99.148 68.96 100.5 69.433 Q 102.237 70.041 107.706 70.385 A 140.166 140.166 0 0 0 109.45 70.483 A 207.948 207.948 0 0 0 111.398 70.573 Q 116.248 70.771 118.98 70.627 A 28.245 28.245 0 0 0 119.65 70.583 A 23.602 23.602 0 0 0 123.407 70 A 19.638 19.638 0 0 0 125.6 69.333 A 8.338 8.338 0 0 0 129.154 66.823 A 9.952 9.952 0 0 0 129.35 66.583 Q 130.9 64.633 131.85 61.883 A 29.274 29.274 0 0 0 132.842 58.231 A 35.946 35.946 0 0 0 133.25 55.833 Q 133.7 52.533 133.7 49.033 Q 133.7 44.302 133.351 40.677 A 50.814 50.814 0 0 0 133.1 38.533 Q 132.5 34.233 130.85 30.283 Q 129.2 26.333 125.9 23.783 Q 123.14 21.651 118.701 21.022 A 25.648 25.648 0 0 0 116.9 20.833 Q 114.1 20.433 108.35 21.033 A 18.291 18.291 0 0 0 104.578 21.807 Q 102.167 22.593 100.424 24.059 A 10.834 10.834 0 0 0 99.5 24.933 Q 98.431 26.488 98.543 25.824 A 1.323 1.323 0 0 1 98.55 25.783 A 3.485 3.485 0 0 0 98.598 25.473 Q 98.636 25.119 98.584 24.829 A 1.528 1.528 0 0 0 98.5 24.533 A 195.517 195.517 0 0 1 98.456 23.465 Q 98.406 22.14 98.401 21.4 A 23.237 23.237 0 0 1 98.4 21.233 A 3.956 3.956 0 0 0 98.394 21.002 Q 98.381 20.782 98.341 20.642 A 0.63 0.63 0 0 0 98.3 20.533 A 94.949 94.949 0 0 1 96.463 20.594 Q 94.838 20.633 92.9 20.633 Q 92.7 27.833 92.75 35.583 Q 92.8 43.333 92.95 51.383 Q 93.1 59.433 93.3 67.733 Q 93.5 76.033 93.5 84.333 Z M 274.987 27.949 A 21.781 21.781 0 0 0 274.85 28.433 Q 274.5 29.733 274.4 30.833 Q 274.1 32.733 274 34.483 Q 273.9 36.233 273.9 38.033 Q 274.188 41.196 274.062 45.001 A 74.837 74.837 0 0 1 274.05 45.333 A 91.241 91.241 0 0 0 273.986 48.753 A 89.58 89.58 0 0 0 274.1 53.283 A 34.856 34.856 0 0 0 275.178 60.382 A 32.397 32.397 0 0 0 275.3 60.833 Q 276.3 64.433 279 66.833 Q 282.5 70.333 287.6 71.233 Q 290.4 71.233 293.8 71.483 Q 297.2 71.733 300.4 71.483 A 23.37 23.37 0 0 0 304.745 70.743 A 20.495 20.495 0 0 0 306.35 70.233 Q 309.1 69.233 310.8 66.833 A 3.609 3.609 0 0 0 311.381 66.042 Q 311.84 65.224 312.171 63.92 A 17.022 17.022 0 0 0 312.35 63.133 Q 312.9 60.433 313.25 57.033 Q 313.6 53.633 313.75 49.933 A 1335.542 1335.542 0 0 0 313.88 46.64 Q 313.938 45.095 313.986 43.722 A 773.379 773.379 0 0 0 314 43.333 Q 313.9 40.033 313.8 36.883 A 55.076 55.076 0 0 0 313.593 33.498 A 43.16 43.16 0 0 0 313.3 31.083 Q 312.9 28.433 312.1 26.433 A 7.855 7.855 0 0 0 311.42 25.094 Q 310.938 24.347 310.324 23.843 A 4.516 4.516 0 0 0 309.9 23.533 A 14.023 14.023 0 0 0 305.259 20.618 A 16.114 16.114 0 0 0 304.9 20.483 Q 302 19.433 298.8 19.233 A 24.988 24.988 0 0 0 296.904 19.123 Q 296.691 19.119 296.482 19.119 A 20.191 20.191 0 0 0 294.85 19.183 A 19.957 19.957 0 0 1 293.237 19.248 A 22.476 22.476 0 0 1 291 19.133 Q 288.6 19.133 286.25 19.433 Q 283.9 19.733 281.85 20.483 A 16.711 16.711 0 0 0 279.702 21.438 A 13.577 13.577 0 0 0 278.25 22.333 Q 276.7 23.433 276 24.933 Q 275.341 26.747 274.987 27.949 Z M 280.5 27.333 Q 283.1 24.033 290.9 22.933 A 37.461 37.461 0 0 1 294.292 22.777 A 32.296 32.296 0 0 1 303.35 24.033 A 8.278 8.278 0 0 1 306.62 25.774 Q 308.268 27.25 308.863 29.679 A 12.842 12.842 0 0 1 309.2 32.733 Q 309.831 39.944 309.69 44.839 A 52.951 52.951 0 0 1 309.65 45.883 Q 309.478 49.424 309.424 52.327 A 135.774 135.774 0 0 0 309.4 54.833 A 27.558 27.558 0 0 1 309.149 58.722 Q 308.528 63.052 306.378 65.072 A 6.197 6.197 0 0 1 304.1 66.433 A 27.746 27.746 0 0 1 298.296 67.729 A 32.258 32.258 0 0 1 296.55 67.883 A 46.631 46.631 0 0 1 294.438 67.967 Q 292.554 67.998 290.863 67.86 A 28.956 28.956 0 0 1 289.25 67.683 A 16.609 16.609 0 0 1 283.716 65.862 A 19.323 19.323 0 0 1 282.95 65.433 Q 279.9 63.633 279.1 57.233 Q 278.02 47.12 277.904 42.116 A 57.556 57.556 0 0 1 277.9 41.933 A 99.323 99.323 0 0 1 277.881 40.471 Q 277.865 37.322 278.068 34.898 A 37.421 37.421 0 0 1 278.2 33.583 Q 278.6 30.233 280.5 27.333 Z M 81.415 61.158 A 28.414 28.414 0 0 0 82.7 58.133 Q 83.673 51.767 83.59 48.176 A 19.759 19.759 0 0 0 83.55 47.283 Q 83.3 43.633 82.9 40.283 Q 82.638 38.085 81.901 35.219 A 72.799 72.799 0 0 0 81 32.033 A 13.016 13.016 0 0 0 80.58 30.859 A 9.26 9.26 0 0 0 75.1 25.483 A 18.161 18.161 0 0 0 72.308 24.689 Q 70.048 24.233 67.499 24.277 A 28.618 28.618 0 0 0 65 24.433 A 24.07 24.07 0 0 0 62.846 24.833 A 19.823 19.823 0 0 0 57.35 26.983 A 13.885 13.885 0 0 0 55.664 28.132 A 10.518 10.518 0 0 0 52.6 31.983 A 14.777 14.777 0 0 0 51.528 35.381 A 19.398 19.398 0 0 0 51.2 39.033 L 51.2 47.933 A 261.043 261.043 0 0 0 51.214 50.686 Q 51.259 54.93 51.45 57.533 Q 51.608 59.685 52.147 61.176 A 6.651 6.651 0 0 0 52.9 62.683 Q 54.1 64.433 56.8 65.633 A 11.576 11.576 0 0 0 58.307 66.177 Q 59.482 66.514 60.875 66.678 A 24.199 24.199 0 0 0 63.7 66.833 A 220.491 220.491 0 0 0 67.134 66.808 Q 70.687 66.753 73.252 66.575 A 49.144 49.144 0 0 0 75.85 66.333 A 4.904 4.904 0 0 0 78.044 65.473 Q 79.885 64.208 81.415 61.158 Z M 127.815 61.158 A 28.414 28.414 0 0 0 129.1 58.133 Q 130.073 51.767 129.99 48.176 A 19.759 19.759 0 0 0 129.95 47.283 Q 129.7 43.633 129.3 40.283 Q 129.038 38.085 128.301 35.219 A 72.799 72.799 0 0 0 127.4 32.033 A 13.016 13.016 0 0 0 126.98 30.859 A 9.26 9.26 0 0 0 121.5 25.483 A 18.161 18.161 0 0 0 118.708 24.689 Q 116.448 24.233 113.899 24.277 A 28.618 28.618 0 0 0 111.4 24.433 A 24.07 24.07 0 0 0 109.246 24.833 A 19.823 19.823 0 0 0 103.75 26.983 A 13.885 13.885 0 0 0 102.064 28.132 A 10.518 10.518 0 0 0 99 31.983 A 14.777 14.777 0 0 0 97.928 35.381 A 19.398 19.398 0 0 0 97.6 39.033 L 97.6 47.933 A 261.043 261.043 0 0 0 97.614 50.686 Q 97.659 54.93 97.85 57.533 Q 98.008 59.685 98.547 61.176 A 6.651 6.651 0 0 0 99.3 62.683 Q 100.5 64.433 103.2 65.633 A 11.576 11.576 0 0 0 104.707 66.177 Q 105.882 66.514 107.275 66.678 A 24.199 24.199 0 0 0 110.1 66.833 A 220.491 220.491 0 0 0 113.534 66.808 Q 117.087 66.753 119.652 66.575 A 49.144 49.144 0 0 0 122.25 66.333 A 4.904 4.904 0 0 0 124.444 65.473 Q 126.285 64.208 127.815 61.158 Z M 29.612 49.332 A 1283.184 1283.184 0 0 0 34.3 49.233 Q 26.338 10.208 24.691 5.33 A 1.308 1.308 0 0 0 24.35 4.633 L 21.65 4.633 Q 19.8 4.633 18.85 4.683 A 0.191 0.191 0 0 0 18.813 4.689 Q 17.854 4.934 15.55 15.083 A 443.743 443.743 0 0 0 15.163 16.805 Q 12.82 27.316 8.4 49.233 A 10.79 10.79 0 0 0 8.574 49.246 Q 9.971 49.34 15.35 49.433 A 157.534 157.534 0 0 0 16.904 49.452 Q 21.497 49.487 29.612 49.332 Z M 232.599 32.578 A 26.208 26.208 0 0 0 231.9 37.933 L 231.9 45.433 A 112.472 112.472 0 0 0 232.13 49.034 Q 232.571 54.468 233.45 57.183 A 26.971 26.971 0 0 0 234.172 59.162 Q 234.599 60.197 235.067 61.034 A 10.876 10.876 0 0 0 236.1 62.583 Q 237.6 64.433 240.65 65.133 A 22.693 22.693 0 0 0 240.853 65.179 Q 243.829 65.833 247.6 65.833 A 41.738 41.738 0 0 0 247.791 65.833 Q 250.692 65.82 252.783 65.401 A 12.419 12.419 0 0 0 254.8 64.833 Q 256.527 64.169 258.121 62.513 A 16.626 16.626 0 0 0 259.7 60.583 Q 262 57.333 262.25 53.383 A 120.198 120.198 0 0 0 262.438 49.187 A 165.478 165.478 0 0 0 262.5 44.533 A 92.183 92.183 0 0 0 262.432 42.985 Q 262.188 38.336 261.5 34.683 A 14.952 14.952 0 0 0 259.728 29.981 A 20.423 20.423 0 0 0 257.2 26.533 A 6.759 6.759 0 0 0 256.531 25.885 Q 253.117 23 244.811 23.331 A 50.199 50.199 0 0 0 243.05 23.433 Q 234.719 24.059 232.599 32.578 Z M 167.3 23.833 Q 171.3 26.533 173 30.833 A 30.182 30.182 0 0 1 174.295 34.882 A 22.423 22.423 0 0 1 174.9 38.933 L 174.9 40.683 Q 174.9 41.164 174.061 41.339 A 3.771 3.771 0 0 1 173.8 41.383 Q 172.741 41.528 170.524 41.672 A 135.159 135.159 0 0 1 170.35 41.683 A 27.27 27.27 0 0 1 169.513 41.723 Q 167.288 41.796 163.152 41.656 A 244.324 244.324 0 0 1 162.5 41.633 Q 155.1 41.933 151.45 41.783 Q 147.843 41.635 145.408 41.438 A 82.195 82.195 0 0 1 145.35 41.433 Q 142.9 41.233 142.75 40.283 Q 142.616 39.438 142.84 37.443 A 39.545 39.545 0 0 1 142.9 36.933 Q 143.3 34.033 144.25 31.283 A 11.201 11.201 0 0 1 145.898 28.15 A 10.143 10.143 0 0 1 147.2 26.733 A 14.239 14.239 0 0 1 149.907 24.836 A 18.78 18.78 0 0 1 152.2 23.783 A 15.09 15.09 0 0 1 154.703 23.083 Q 155.995 22.83 157.51 22.719 A 34.266 34.266 0 0 1 160 22.633 A 43.748 43.748 0 0 1 161.35 22.653 Q 162.693 22.695 163.638 22.825 A 12.564 12.564 0 0 1 163.7 22.833 A 11 11 0 0 1 164.653 23.017 Q 165.712 23.266 167.101 23.762 A 36.675 36.675 0 0 1 167.3 23.833 Z"
              vector-effect="non-scaling-stroke"/>
    </g>
</svg>